#!OML:ASF E:\Style4\Style4.ASF
:FULLY-SPECIFIED
:DEGREES
1318
root 0.117404 18.0243 -2.19971 1.37673 -1.63288 0.860014
lowerback 6.86131 2.64127 -1.10383
upperback 2.47191 3.44074 0.191805
thorax -1.36861 1.71301 0.541516
lowerneck -1.50121 -4.51543 -6.98069
upperneck 5.27304 -6.07323 5.28246
head 2.38023 -3.04499 2.78054
rclavicle 2.36802e-014 1.43125e-014
rhumerus -379.341 17.5338 -442.855
rradius 112.766
rwrist 10.5151
rhand -37.2783 32.0083
rfingers 7.12502
rthumb -10.3431 2.28268
lclavicle 2.36802e-014 1.43125e-014
lhumerus -23.6165 -23.7235 85.0755
lradius 115.646
lwrist -3.49434
lhand -28.8514 22.0211
lfingers 7.12502
lthumb -2.20818 51.9894
rfemur -11.1504 4.32667 16.5475
rtibia 23.9851
rfoot -13.6497 -13.2645
rtoes -9.76558
lfemur -8.30708 -0.949034 -21.0573
ltibia 23.0456
lfoot -17.3312 12.1056
ltoes -11.0958
1319
root 0.113347 18.0216 -2.2114 1.327 -1.57852 0.796676
lowerback 6.79648 2.60476 -0.995996
upperback 2.55506 3.4017 0.269418
thorax -1.24489 1.69296 0.569849
lowerneck -1.36815 -4.51432 -6.95996
upperneck 5.16053 -6.07347 5.20964
head 2.31418 -3.04745 2.75471
rclavicle -1.43622e-014 -3.97569e-015
rhumerus -378.391 17.5881 -442.535
rradius 111.288
rwrist 9.96729
rhand -37.5315 32.1239
rfingers 7.12502
rthumb -10.5873 2.41061
lclavicle -1.43622e-014 -3.97569e-015
lhumerus -22.7764 -23.9115 84.8791
lradius 114.501
lwrist -2.38867
lhand -28.459 22.478
lfingers 7.12502
lthumb -1.82919 52.4499
rfemur -11.2048 4.30727 16.6435
rtibia 24.1251
rfoot -13.6297 -13.3378
rtoes -10.1761
lfemur -8.43635 -0.884682 -20.9636
ltibia 23.2625
lfoot -17.2879 12.0677
ltoes -11.4122
1320
root 0.109646 18.0172 -2.22438 1.26828 -1.55568 0.830641
lowerback 7.93481 2.52606 -0.953333
upperback 1.86704 3.28381 0.200433
thorax -2.57667 1.63911 0.411221
lowerneck -1.04698 -4.42997 -6.72786
upperneck 5.71873 -5.99163 5.00679
head 2.41704 -3.01292 2.65035
rclavicle 4.31611e-014 2.98177e-015
rhumerus -378.682 17.8099 -442.901
rradius 109.844
rwrist 9.31156
rhand -36.6244 31.4756
rfingers 7.12502
rthumb -9.71232 1.71958
lclavicle 4.31611e-014 2.98177e-015
lhumerus -23.3174 -24.111 84.8839
lradius 113.468
lwrist -1.11726
lhand -28.1474 22.8671
lfingers 7.12502
lthumb -1.52824 52.8414
rfemur -11.2917 4.25773 16.6194
rtibia 24.3117
rfoot -13.6489 -13.3239
rtoes -10.2368
lfemur -8.57125 -0.838299 -20.986
ltibia 23.5067
lfoot -17.3021 12.064
ltoes -11.5906
1321
root 0.106308 18.011 -2.2392 1.17967 -1.54946 0.866428
lowerback 7.48761 2.57047 -0.917246
upperback 2.27805 3.35275 0.257583
thorax -1.90709 1.67099 0.476374
lowerneck -1.0788 -4.51317 -6.73153
upperneck 5.44141 -6.09081 4.96413
head 2.33521 -3.06152 2.63326
rclavicle 1.80397e-014 2.78299e-015
rhumerus -377.238 17.5895 -442.365
rradius 108.145
rwrist 8.51125
rhand -36.8841 30.4985
rfingers 7.12502
rthumb -9.96287 0.754236
lclavicle 1.80397e-014 2.78299e-015
lhumerus -21.9954 -24.3487 84.6113
lradius 111.991
lwrist 0.439088
lhand -27.9346 23.3777
lfingers 7.12502
lthumb -1.32271 53.3533
rfemur -11.4033 4.222 16.5947
rtibia 24.5858
rfoot -13.6203 -13.3626
rtoes -10.3509
lfemur -8.64518 -0.788254 -21.0073
ltibia 23.6941
lfoot -17.3398 12.0147
ltoes -11.3865
1322
root 0.104033 18.0023 -2.25158 1.06323 -1.52375 0.965604
lowerback 7.29442 2.57421 -0.849723
upperback 2.51855 3.36424 0.221429
thorax -1.54638 1.67541 0.417075
lowerneck -1.06227 -4.54762 -6.78433
upperneck 5.40607 -6.14026 5.05435
head 2.33003 -3.0853 2.67235
rclavicle -9.93923e-017 7.95139e-016
rhumerus -376.104 17.3831 -442.069
rradius 106.343
rwrist 7.60353
rhand -38.0749 29.7593
rfingers 7.12502
rthumb -11.1115 0.0734934
lclavicle -9.93923e-017 7.95139e-016
lhumerus -20.8887 -24.5137 84.315
lradius 110.391
lwrist 2.53123
lhand -27.6971 23.7077
lfingers 7.12502
lthumb -1.0934 53.6847
rfemur -11.5285 4.09807 16.4935
rtibia 24.9744
rfoot -13.7181 -13.3063
rtoes -10.7463
lfemur -8.61246 -0.693349 -21.1016
ltibia 23.7644
lfoot -17.3451 11.8411
ltoes -11.1187
1323
root 0.101129 17.9929 -2.25896 0.821249 -1.5047 1.29707
lowerback 7.29982 2.59743 -1.02566
upperback 2.72244 3.38131 0.119256
thorax -1.34337 1.6826 0.414682
lowerneck -0.939671 -4.57154 -6.80058
upperneck 5.39169 -6.18403 5.15001
head 2.31082 -3.10685 2.70884
rclavicle 2.83268e-015 -1.78906e-015
rhumerus -374.975 17.042 -441.819
rradius 104.44
rwrist 6.41003
rhand -37.3468 28.8365
rfingers 7.12502
rthumb -10.4092 -0.885843
lclavicle 2.83268e-015 -1.78906e-015
lhumerus -19.8488 -24.5767 84.078
lradius 108.936
lwrist 4.92022
lhand -27.2122 24.1992
lfingers 7.12502
lthumb -0.625042 54.1781
rfemur -11.5281 3.91049 16.1297
rtibia 25.424
rfoot -13.9924 -13.068
rtoes -10.5589
lfemur -8.38945 -0.545094 -21.4622
ltibia 23.7754
lfoot -17.3013 11.7237
ltoes -11.3057
1324
root 0.0972029 17.9824 -2.26723 0.461174 -1.45556 1.76471
lowerback 7.57227 2.61969 -1.49911
upperback 2.86597 3.37331 0.0907537
thorax -1.37096 1.67627 0.640935
lowerneck -0.704721 -4.58632 -6.82501
upperneck 5.37732 -6.2132 5.08498
head 2.26331 -3.12606 2.6951
rclavicle 5.56597e-015 -1.2921e-014
rhumerus -373.977 16.8043 -441.551
rradius 102.568
rwrist 5.08659
rhand -36.0424 27.9587
rfingers 7.12502
rthumb -9.15071 -1.82275
lclavicle 5.56597e-015 -1.2921e-014
lhumerus -19.0135 -24.5053 84.0181
lradius 107.611
lwrist 7.28408
lhand -26.344 25.3033
lfingers 7.12502
lthumb 0.213458 55.283
rfemur -11.3914 3.68295 15.6234
rtibia 25.8542
rfoot -14.1987 -12.8804
rtoes -10.6365
lfemur -8.08762 -0.474255 -21.9728
ltibia 23.8694
lfoot -17.281 11.6647
ltoes -11.5163
1325
root 0.0936382 17.9707 -2.27679 0.192325 -1.32443 2.00286
lowerback 7.78398 2.60546 -1.73182
upperback 2.97384 3.33457 0.118627
thorax -1.39031 1.65531 0.79575
lowerneck -0.484548 -4.6159 -6.78701
upperneck 5.40504 -6.25896 4.92697
head 2.22677 -3.15397 2.63749
rclavicle -1.92821e-014 5.96354e-015
rhumerus -373.221 16.5929 -441.282
rradius 100.769
rwrist 3.44726
rhand -35.3147 27.6376
rfingers 7.12502
rthumb -8.4485 -2.17339
lclavicle -1.92821e-014 5.96354e-015
lhumerus -18.2087 -24.4254 83.9249
lradius 106.368
lwrist 9.84946
lhand -25.286 26.6134
lfingers 7.12502
lthumb 1.23533 56.5896
rfemur -11.2874 3.41683 15.3664
rtibia 26.1937
rfoot -14.3256 -12.7706
rtoes -11.0174
lfemur -7.98873 -0.471996 -22.232
ltibia 24.155
lfoot -17.3397 11.5646
ltoes -11.7096
1326
root 0.0885983 17.9588 -2.29428 0.129896 -1.23139 1.77173
lowerback 7.81962 2.56152 -1.44562
upperback 3.06998 3.29897 0.215075
thorax -1.2998 1.63748 0.73964
lowerneck -0.425339 -4.61933 -6.80475
upperneck 5.52988 -6.26918 4.91812
head 2.25852 -3.16082 2.63817
rclavicle 1.02871e-014 6.75868e-015
rhumerus -372.567 16.3934 -441.062
rradius 99.1858
rwrist 1.75754
rhand -34.3946 27.0049
rfingers 7.12502
rthumb -7.56048 -2.83997
lclavicle 1.02871e-014 6.75868e-015
lhumerus -17.3386 -24.2564 83.7026
lradius 105.224
lwrist 12.1166
lhand -23.9778 27.6246
lfingers 7.12502
lthumb 2.4988 57.5897
rfemur -11.4135 3.27256 15.6404
rtibia 26.4742
rfoot -14.4626 -12.6814
rtoes -11.0718
lfemur -8.24053 -0.378961 -21.9375
ltibia 24.6132
lfoot -17.4228 11.3754
ltoes -11.7614
1327
root 0.0803113 17.948 -2.31865 0.153273 -1.19926 1.20356
lowerback 7.87047 2.51726 -0.861309
upperback 3.13655 3.28606 0.4124
thorax -1.23836 1.6327 0.617167
lowerneck -0.451205 -4.61541 -6.87511
upperneck 5.70172 -6.26687 4.95495
head 2.32501 -3.16084 2.6625
rclavicle -1.63997e-014 8.74653e-015
rhumerus -371.952 16.314 -440.88
rradius 98.0847
rwrist 0.283296
rhand -33.6801 25.6609
rfingers 7.12502
rthumb -6.87078 -4.20765
lclavicle -1.63997e-014 8.74653e-015
lhumerus -16.5757 -24.113 83.4254
lradius 104.028
lwrist 13.3502
lhand -22.6075 28.1348
lfingers 7.12502
lthumb 3.82209 58.0803
rfemur -11.6475 3.27906 16.3123
rtibia 26.7127
rfoot -14.5433 -12.6783
rtoes -10.6668
lfemur -8.69475 -0.243544 -21.25
ltibia 25.2127
lfoot -17.5448 11.2041
ltoes -11.8973
1328
root 0.0729413 17.9363 -2.34064 0.0938033 -1.14331 1.03811
lowerback 7.99672 2.49573 -0.670655
upperback 3.22127 3.27187 0.496401
thorax -1.21477 1.62592 0.594945
lowerneck -0.477786 -4.63574 -6.88686
upperneck 5.87864 -6.29364 4.90801
head 2.38905 -3.17583 2.64667
rclavicle 1.0138e-014 5.96354e-015
rhumerus -371.432 16.2735 -440.728
rradius 97.333
rwrist -0.985837
rhand -33.3383 24.487
rfingers 7.12502
rthumb -6.54078 -5.39195
lclavicle 1.0138e-014 5.96354e-015
lhumerus -15.9475 -24.1532 83.1958
lradius 103.011
lwrist 14.1535
lhand -22.0706 28.6668
lfingers 7.12502
lthumb 4.34062 58.6023
rfemur -11.7921 3.17501 16.525
rtibia 26.9405
rfoot -14.5408 -12.648
rtoes -10.8932
lfemur -9.09357 -0.11414 -21.0216
ltibia 25.8924
lfoot -17.7251 11.0051
ltoes -11.7815
1329
root 0.0669153 17.9225 -2.35796 -0.0206868 -1.06372 1.10506
lowerback 8.13215 2.49081 -0.705627
upperback 3.34723 3.26173 0.508
thorax -1.16188 1.62002 0.624641
lowerneck -0.539396 -4.69425 -6.88452
upperneck 6.01135 -6.37 4.88645
head 2.44872 -3.21403 2.63458
rclavicle 3.87133e-014 1.19271e-015
rhumerus -370.944 16.273 -440.407
rradius 96.6621
rwrist -1.95486
rhand -32.7983 24.0395
rfingers 7.12502
rthumb -6.01948 -5.85494
lclavicle 3.87133e-014 1.19271e-015
lhumerus -15.426 -24.3131 82.9804
lradius 102.296
lwrist 14.8186
lhand -22.2616 29.2075
lfingers 7.12502
lthumb 4.15617 59.1467
rfemur -11.8853 2.98398 16.4646
rtibia 27.2246
rfoot -14.6086 -12.5483
rtoes -10.9679
lfemur -9.37694 -0.00859379 -21.0662
ltibia 26.5007
lfoot -17.9386 10.8087
ltoes -11.69
1330
root 0.0589166 17.9081 -2.37518 -0.144494 -1.00154 0.970958
lowerback 8.29433 2.481 -0.53316
upperback 3.48354 3.26106 0.548039
thorax -1.10337 1.62011 0.566079
lowerneck -0.556295 -4.75154 -6.82973
upperneck 6.02131 -6.44855 4.9102
head 2.45904 -3.25107 2.62946
rclavicle -1.08835e-014 4.37326e-015
rhumerus -370.543 16.2834 -440.132
rradius 96.1793
rwrist -2.66551
rhand -32.5261 23.5915
rfingers 7.12502
rthumb -5.75673 -6.31028
lclavicle -1.08835e-014 4.37326e-015
lhumerus -15.0232 -24.4377 82.7118
lradius 101.774
lwrist 14.9952
lhand -22.4298 29.3417
lfingers 7.12502
lthumb 3.99374 59.284
rfemur -11.992 2.85275 16.6399
rtibia 27.5703
rfoot -14.6714 -12.5114
rtoes -11.3293
lfemur -9.58234 0.109826 -20.879
ltibia 26.987
lfoot -18.0816 10.6172
ltoes -11.6193
1331
root 0.051129 17.8926 -2.39045 -0.298717 -0.941136 0.903717
lowerback 8.51889 2.46871 -0.428409
upperback 3.60908 3.25174 0.573729
thorax -1.09293 1.6157 0.528194
lowerneck -0.573957 -4.7819 -6.84134
upperneck 6.02178 -6.49265 4.9935
head 2.46985 -3.27116 2.65798
rclavicle -3.66261e-014 -2.78299e-015
rhumerus -370.328 16.373 -439.92
rradius 95.951
rwrist -3.26292
rhand -32.6671 23.2958
rfingers 7.12502
rthumb -5.89286 -6.60226
lclavicle -3.66261e-014 -2.78299e-015
lhumerus -14.7856 -24.5402 82.4683
lradius 101.486
lwrist 14.9532
lhand -22.5358 29.205
lfingers 7.12502
lthumb 3.89134 59.1492
rfemur -12.0616 2.74209 16.7431
rtibia 27.9358
rfoot -14.792 -12.4694
rtoes -11.5004
lfemur -9.70936 0.239896 -20.7603
ltibia 27.4111
lfoot -18.2274 10.3407
ltoes -11.3089
